<?xml version="1.0" encoding="utf-8"?>
<!-- Generator: Adobe Illustrator 27.5.0, SVG Export Plug-In . SVG Version: 6.00 Build 0)  -->
<svg version="1.1" xmlns="http://www.w3.org/2000/svg" xmlns:xlink="http://www.w3.org/1999/xlink" x="0px" y="0px"
	 viewBox="0 0 550 500" style="enable-background:new 0 0 550 500;" xml:space="preserve">
<g id="BACKGROUND">
	<rect style="fill:#F6EEE3;" width="550" height="500"/>
</g>
<g id="OBJECTS">
	<g>
		<g>
			<g>
				<g>
					<path style="fill:#5C69AB;" d="M463.87,299.649c-18.882-30.984-63.428-50.085-96.421-60.081
						c-0.009-0.003-5.33,0.348-5.339,0.344c-4.924-3.569-5.437-6.599-12.337-8.1c-9.313-2.025-29.378-5.948-38.994-5.844
						l-35.532,0.384c-10.634,0.115-20.576,4.946-31.12,5.06c-66.148,0.715-41.454,133.516-41.454,133.516L199.097,500l189.397,0.01
						c0,0-2.143-79.522-2.147-79.691c0.004,0.13,34.908-9.068,38.176-10.335c12.426-4.819,24.44-11.469,33.329-21.603
						c19.581-22.323,21.634-60.221,7.685-85.84C465.006,301.565,464.45,300.602,463.87,299.649z"/>
					<path style="fill:#5C69AB;" d="M388.494,500.51l-189.397-0.01c-0.135,0-0.264-0.055-0.358-0.151
						c-0.094-0.097-0.145-0.227-0.142-0.362l3.575-135.018c-0.462-2.544-15.362-86.608,12.2-120.135
						c7.484-9.104,17.494-13.788,29.75-13.92c5.204-0.056,10.377-1.303,15.381-2.508c5.09-1.227,10.353-2.494,15.738-2.553
						l35.531-0.384c0.127-0.001,0.256-0.002,0.386-0.002c11.453,0,35.938,5.252,38.721,5.857c4.788,1.042,6.645,2.849,8.793,4.941
						c1.026,1,2.087,2.033,3.589,3.138c0.461-0.029,1.775-0.115,2.96-0.192c2.27-0.148,2.27-0.148,2.35-0.128
						c27.486,8.327,76.566,27.224,96.727,60.306l0,0c0.58,0.951,1.145,1.931,1.68,2.911c14.613,26.841,11.209,64.796-7.749,86.409
						c-7.816,8.911-18.782,16.021-33.524,21.739c-0.315,0.123-32.356,9.16-37.848,10.202c0.152,5.647,2.118,78.58,2.139,79.345
						c0.004,0.135-0.048,0.266-0.142,0.362C388.758,500.455,388.629,500.51,388.494,500.51z M199.61,499.5l188.37,0.01
						c-0.2-7.427-2.13-79.018-2.134-79.18c-0.005-0.196,0.106-0.377,0.284-0.462c0.06-0.029,0.126-0.046,0.191-0.049
						c1.756-0.301,34.984-9.125,38.02-10.302c14.588-5.658,25.427-12.681,33.134-21.468c18.7-21.318,22.049-58.773,7.622-85.271
						c-0.526-0.966-1.083-1.932-1.654-2.87l0,0c-19.967-32.764-68.712-51.545-96.054-59.836c-0.268,0.017-1.145,0.074-2.103,0.137
						c-3.272,0.213-3.274,0.213-3.399,0.15c-1.706-1.229-2.879-2.371-3.913-3.377c-2.122-2.067-3.799-3.701-8.308-4.681
						c-12.635-2.749-30.407-5.939-38.882-5.833l-35.531,0.384c-5.272,0.057-10.48,1.312-15.516,2.525
						c-5.059,1.218-10.288,2.478-15.605,2.536c-11.947,0.129-21.7,4.689-28.988,13.554c-27.551,33.512-12.139,118.515-11.98,119.37
						c0.006,0.035,0.009,0.07,0.008,0.105L199.61,499.5z"/>
				</g>
				<g>
					<path style="fill:#B6A496;" d="M340.268,75.798c-18.094-10.607-25.918-27.007-52.151-22.994
						c-8.409,1.286-16.115,5.642-20.69,12.439c-1.798,2.671-3.171,5.743-3.424,9.07l-13.021,0.347
						c-17.671,0.471-29.856,16.936-24.276,32.804l9.138,15.088l0.314,27.452c0.145,12.731,11.173,22.94,24.631,22.803l59.513-0.608
						c13.458-0.138,24.25-10.57,24.104-23.301l-0.283-24.787C352.792,117.177,366.874,91.395,340.268,75.798z"/>
					<g>
						<g>
							<path style="fill:#FFA485;" d="M356.965,140.18c-0.107-9.879-8.202-17.801-18.081-17.694l-1.598,0.017l-0.204-18.845
								c-0.223-20.61-17.111-37.138-37.721-36.915l-17.345,0.187c-20.61,0.223-37.138,17.111-36.915,37.721l0.204,18.845
								l-1.59,0.017c-9.879,0.107-17.801,8.202-17.694,18.081l0.01,0.882c0.107,9.879,8.202,17.801,18.081,17.694l1.59-0.017
								l0.123,11.351c0.141,13.008,6.926,24.38,17.09,30.949l0.135,12.476c0.171,15.77,13.212,28.533,28.982,28.362
								c15.77-0.17,28.533-13.212,28.363-28.982l-0.127-11.759c10.65-6.672,17.685-18.553,17.539-32.04l-0.123-11.351l1.597-0.017
								c9.879-0.107,17.801-8.202,17.694-18.081L356.965,140.18z"/>
							<g>
								<path style="fill:#E06A4B;" d="M343.538,146.903c-0.232,0-0.464-0.08-0.652-0.242l-3.705-3.191
									c-0.418-0.36-0.466-0.989-0.108-1.408l5.095-5.956c0.359-0.421,0.992-0.467,1.41-0.11c0.419,0.359,0.469,0.99,0.109,1.41
									l-4.447,5.199l2.95,2.541c0.419,0.36,0.466,0.992,0.105,1.411C344.098,146.785,343.818,146.903,343.538,146.903z"/>
								<path style="fill:#E06A4B;" d="M237.927,146.887c-0.274,0-0.546-0.112-0.744-0.331c-0.369-0.411-0.336-1.043,0.075-1.413
									l2.895-2.604l-4.559-5.102c-0.368-0.412-0.333-1.044,0.079-1.412c0.413-0.368,1.044-0.332,1.412,0.079l5.223,5.845
									c0.367,0.411,0.333,1.041-0.077,1.41l-3.635,3.271C238.404,146.802,238.165,146.887,237.927,146.887z"/>
								<g>
									<g>
										<g>
											<path style="fill:#E06A4B;" d="M296.189,183.202c-0.197,0-0.397-0.059-0.571-0.18l0,0
												c-0.159-0.111-3.958-2.681-7.613-0.012c-0.446,0.326-1.072,0.228-1.397-0.218c-0.325-0.446-0.229-1.071,0.218-1.398
												c3.861-2.821,8.191-1.24,9.94-0.01c0.452,0.317,0.561,0.941,0.243,1.393
												C296.813,183.054,296.504,183.202,296.189,183.202z"/>
										</g>
									</g>
									<g>
										<g>
											<g>
												<path style="fill:#B6A496;" d="M318.251,119.472c-1.323,0.318-2.889-0.125-4.425-0.464
													c-1.54-0.375-3.096-0.713-4.458-0.958c-1.365-0.247-2.941-0.474-4.514-0.661c-1.558-0.219-3.185-0.353-4.304-1.111
													c-1.083-0.715-1.308-2.242,0.387-3.765c1.603-1.491,5.335-2.754,9.853-1.95c4.508,0.825,7.531,3.306,8.482,5.258
													C320.294,117.834,319.525,119.182,318.251,119.472z"/>
											</g>
											<g>
												<path style="fill:#B6A496;" d="M258.636,119.763c1.276,0.481,2.882,0.237,4.448,0.093c1.574-0.18,3.158-0.32,4.54-0.393
													c1.384-0.074,2.976-0.103,4.56-0.091c1.573-0.023,3.204,0.048,4.405-0.564c1.161-0.574,1.569-2.062,0.069-3.785
													c-1.411-1.68-4.963-3.4-9.544-3.168c-4.574,0.255-7.872,2.339-9.05,4.157
													C256.806,117.882,257.407,119.316,258.636,119.763z"/>
											</g>
										</g>
									</g>
								</g>
								<path style="fill:#111111;" d="M304.528,134.389c-0.794,1.727-0.038,3.771,1.689,4.566c1.727,0.794,3.772,0.038,4.566-1.69
									c0.794-1.727,0.038-3.772-1.69-4.566C307.367,131.906,305.322,132.662,304.528,134.389z"/>
								<path style="fill:#E06A4B;" d="M303.998,141.067c-0.36,0-0.709-0.195-0.888-0.537c-0.255-0.49-0.065-1.094,0.424-1.35
									c4.679-2.441,8.272-0.126,8.423-0.027c0.461,0.305,0.587,0.926,0.282,1.386c-0.304,0.459-0.922,0.586-1.381,0.285
									c-0.123-0.078-2.807-1.747-6.398,0.13C304.313,141.03,304.153,141.067,303.998,141.067z"/>
								<path style="fill:#111111;" d="M267.039,134.795c-0.794,1.727-0.038,3.771,1.69,4.566c1.727,0.794,3.772,0.038,4.566-1.69
									c0.794-1.727,0.038-3.772-1.69-4.566C269.877,132.311,267.833,133.067,267.039,134.795z"/>
								<path style="fill:#E06A4B;" d="M266.509,141.472c-0.36,0-0.709-0.195-0.888-0.537c-0.255-0.49-0.065-1.094,0.424-1.35
									c4.683-2.444,8.272-0.128,8.423-0.027c0.461,0.305,0.587,0.925,0.282,1.386c-0.303,0.46-0.919,0.587-1.381,0.285
									c-0.121-0.077-2.805-1.746-6.398,0.13C266.823,141.436,266.664,141.472,266.509,141.472z"/>
								<path style="fill:#E06A4B;" d="M291.247,150.657c-3.249,0-6.12-1.195-7.601-3.195c-1.053-1.421-1.305-3.112-0.709-4.759
									l5.8-16.047c0.188-0.52,0.763-0.788,1.28-0.601c0.52,0.188,0.788,0.761,0.601,1.28l-5.8,16.047
									c-0.365,1.012-0.215,2.011,0.435,2.889c1.189,1.606,3.704,2.506,6.57,2.37c1.531-0.078,3.226-0.319,5.036-0.718
									c0.534-0.123,1.072,0.221,1.191,0.762c0.119,0.539-0.222,1.073-0.762,1.191c-1.918,0.422-3.724,0.679-5.364,0.762
									C291.698,150.651,291.472,150.657,291.247,150.657z"/>
								<path style="opacity:0.39;fill:#E06A4B;" d="M262.536,102.352c-0.394,0-0.766-0.232-0.925-0.618
									c-0.211-0.51,0.031-1.095,0.542-1.306c0.788-0.325,19.385-7.886,26.994,0.241c0.377,0.403,0.356,1.036-0.047,1.413
									c-0.403,0.378-1.036,0.357-1.414-0.046c-6.664-7.12-24.589,0.166-24.77,0.241
									C262.792,102.327,262.663,102.352,262.536,102.352z"/>
								<path style="opacity:0.39;fill:#E06A4B;" d="M314.299,102.352c-0.127,0-0.256-0.024-0.381-0.076
									c-0.18-0.075-18.105-7.36-24.771-0.241c-0.379,0.402-1.011,0.423-1.414,0.046c-0.403-0.377-0.424-1.01-0.047-1.413
									c7.611-8.125,26.207-0.565,26.995-0.241c0.511,0.212,0.753,0.796,0.542,1.306
									C315.064,102.119,314.692,102.352,314.299,102.352z"/>
								<path style="opacity:0.39;fill:#E06A4B;" d="M291.346,91.697c-7.724,0-14.044-3.585-14.439-3.814
									c-0.478-0.277-0.641-0.888-0.364-1.366c0.276-0.479,0.887-0.641,1.366-0.365c0.137,0.079,13.774,7.786,24.808,0.047
									c0.453-0.318,1.076-0.207,1.393,0.245c0.317,0.452,0.208,1.076-0.244,1.393C299.735,90.733,295.352,91.697,291.346,91.697z"
									/>
								<path style="fill:#F5EAE2;" d="M274.804,149.473h-19.867c-3.098,0-5.618-2.52-5.618-5.618V128.61
									c0-3.098,2.52-5.618,5.618-5.618h19.867c3.098,0,5.618,2.52,5.618,5.618v15.246
									C280.422,146.953,277.901,149.473,274.804,149.473z M254.936,124.992c-1.995,0-3.618,1.623-3.618,3.618v15.246
									c0,1.995,1.623,3.618,3.618,3.618h19.867c1.995,0,3.618-1.623,3.618-3.618V128.61c0-1.995-1.623-3.618-3.618-3.618H254.936z
									"/>
								<path style="fill:#F5EAE2;" d="M323.293,149.473h-19.867c-3.098,0-5.618-2.52-5.618-5.618V128.61
									c0-3.098,2.521-5.618,5.618-5.618h19.867c3.098,0,5.618,2.52,5.618,5.618v15.246
									C328.911,146.953,326.391,149.473,323.293,149.473z M303.426,124.992c-1.995,0-3.618,1.623-3.618,3.618v15.246
									c0,1.995,1.623,3.618,3.618,3.618h19.867c1.995,0,3.618-1.623,3.618-3.618V128.61c0-1.995-1.623-3.618-3.618-3.618H303.426z
									"/>
								<path style="fill:#F5EAE2;" d="M298.807,135.737c-0.216,0-0.434-0.07-0.618-0.214c-10.215-8.045-17.728-0.424-18.043-0.095
									c-0.38,0.398-1.014,0.414-1.413,0.032c-0.398-0.38-0.415-1.011-0.036-1.411c0.089-0.094,9.052-9.294,20.73-0.097
									c0.434,0.342,0.508,0.971,0.166,1.404C299.395,135.606,299.102,135.737,298.807,135.737z"/>
								<g>
									<path style="fill:#FFFFFF;" d="M305.399,158.608c-1.183-1.105-2.987-1.181-4.343-0.298
										c-2.472,1.609-7.72,4.319-14.523,3.89c-1.67-0.106-2.835,1.664-2.378,3.274c1.005,3.54,4.317,9.29,13.632,6.672
										C309.136,168.956,308.482,161.488,305.399,158.608z"/>
									<path style="fill:#B6A496;" d="M307.656,161.792h-33.565l0,0c0-6.267,5.08-11.348,11.348-11.348h11.344
										c6.005,0,10.873,4.868,10.873,10.873V161.792z"/>
								</g>
								<g>
									<circle style="opacity:0.46;fill:#E06A4B;" cx="254.443" cy="97.889" r="1.361"/>
									<circle style="opacity:0.46;fill:#E06A4B;" cx="249.648" cy="107.553" r="1.361"/>
									<circle style="opacity:0.46;fill:#E06A4B;" cx="259.021" cy="104.831" r="1.361"/>
								</g>
								<g>
									<circle style="opacity:0.46;fill:#E06A4B;" cx="320.503" cy="82.186" r="1.361"/>
									<circle style="opacity:0.46;fill:#E06A4B;" cx="315.709" cy="91.85" r="1.361"/>
									<circle style="opacity:0.46;fill:#E06A4B;" cx="325.082" cy="89.128" r="1.361"/>
								</g>
								<path style="opacity:0.5;fill:#E06A4B;" d="M287.62,190.486c-3.648,0.039-7.079-0.891-10.056-2.544
									c2.314,5.83,8.049,9.954,14.671,9.883c6.523-0.071,12.097-4.193,14.353-9.935c-2.833,1.555-6.077,2.457-9.534,2.495
									L287.62,190.486z"/>
							</g>
							<path style="fill:#E06A4B;" d="M283.546,208.42c-6.708,0.072-13.016-1.638-18.489-4.677
								c4.255,10.72,14.798,18.302,26.974,18.17c11.994-0.13,22.242-7.708,26.39-18.266c-5.208,2.859-11.173,4.518-17.53,4.586
								L283.546,208.42z"/>
						</g>
					</g>
				</g>
				<g>
					<path style="fill:#EB8D2E;" d="M376.874,242.327c-4.511-4.428-14.29-7.085-20.893-9.404c0.14,0.368,0.035,1.414-0.176,1.796
						L293.19,348.595l-62.186-114.073c-0.153-0.28-0.179-0.587-0.111-0.87c-6.416,2.265-11.641,6.156-15.876,11.215l65.197,119.598
						c5.581,10.237,20.271,10.264,25.888,0.047L376.874,242.327z"/>
					<g>
						<path style="fill:#FFFFFF;" d="M355.805,234.719c0.441-0.802,0.016-1.803-0.868-2.036c-3.948-1.044-13.334-3.519-14.31-3.704
							c-16.384-3.112-32.318,12.905-48.55,13.349c-19.385,0.53-19.883-20.842-58.441-10.291c-0.107,0.029-1.123,0.403-1.993,0.746
							c-0.693,0.274-0.995,1.086-0.638,1.741l62.186,114.073L355.805,234.719z"/>
						<path style="fill:#111111;" d="M293.19,349.096L293.19,349.096c-0.184,0-0.352-0.101-0.439-0.261l-62.186-114.074
							c-0.237-0.435-0.277-0.951-0.108-1.417c0.17-0.469,0.535-0.844,1.001-1.028c0.81-0.32,1.894-0.723,2.045-0.764
							c24.244-6.633,33.635-0.719,41.924,4.5c4.876,3.07,9.491,5.983,16.636,5.774c7.173-0.196,14.467-3.56,21.52-6.813
							c8.819-4.068,17.934-8.276,27.138-6.527c0.875,0.167,8.283,2.111,14.344,3.712c0.569,0.15,1.029,0.547,1.262,1.089
							c0.232,0.544,0.202,1.153-0.083,1.672l-62.614,113.877C293.541,348.996,293.373,349.096,293.19,349.096z M252.498,229.616
							c-5.055,0-11.151,0.827-18.73,2.901c-0.11,0.033-1.085,0.391-1.942,0.729c-0.203,0.081-0.355,0.236-0.428,0.439
							c-0.072,0.199-0.056,0.411,0.046,0.597l61.749,113.272l62.174-113.077c0-0.001,0-0.001,0-0.001
							c0.137-0.247,0.151-0.538,0.041-0.796c-0.11-0.257-0.328-0.445-0.599-0.516c-8.545-2.258-13.614-3.571-14.275-3.697
							c-8.884-1.688-17.855,2.451-26.531,6.453c-7.145,3.295-14.533,6.703-21.911,6.905c-7.431,0.197-12.188-2.775-17.195-5.928
							C269.363,233.416,263.326,229.616,252.498,229.616z"/>
					</g>
					<g>
						<line style="fill:#FFFFFF;" x1="292.077" y1="242.327" x2="293.19" y2="348.595"/>
						<path style="fill:#111111;" d="M293.19,349.096c-0.273,0-0.497-0.221-0.5-0.495l-1.113-106.269
							c-0.003-0.276,0.219-0.502,0.495-0.505c0.001,0,0.003,0,0.005,0c0.273,0,0.497,0.22,0.5,0.495l1.113,106.269
							c0.003,0.275-0.219,0.502-0.495,0.505C293.194,349.096,293.192,349.096,293.19,349.096z"/>
					</g>
					<g>
						<path style="fill:#FFFFFF;" d="M301.53,296.219c0,1.377-1.116,2.493-2.493,2.493c-1.377,0-2.493-1.116-2.493-2.493
							c0-1.377,1.116-2.493,2.493-2.493C300.414,293.726,301.53,294.842,301.53,296.219z"/>
						<path style="fill:#111111;" d="M299.037,299.212c-1.65,0-2.993-1.343-2.993-2.993c0-1.65,1.343-2.993,2.993-2.993
							c1.65,0,2.993,1.343,2.993,2.993C302.03,297.869,300.688,299.212,299.037,299.212z M299.037,294.226
							c-1.099,0-1.993,0.895-1.993,1.993c0,1.099,0.895,1.993,1.993,1.993s1.993-0.895,1.993-1.993
							C301.03,295.12,300.136,294.226,299.037,294.226z"/>
					</g>
					<g>
						<path style="fill:#FFFFFF;" d="M301.53,316.419c0,1.377-1.116,2.493-2.493,2.493c-1.377,0-2.493-1.116-2.493-2.493
							c0-1.377,1.116-2.493,2.493-2.493C300.414,313.926,301.53,315.042,301.53,316.419z"/>
						<path style="fill:#111111;" d="M299.037,319.412c-1.65,0-2.993-1.343-2.993-2.993c0-1.65,1.343-2.993,2.993-2.993
							c1.65,0,2.993,1.343,2.993,2.993C302.03,318.069,300.688,319.412,299.037,319.412z M299.037,314.426
							c-1.099,0-1.993,0.895-1.993,1.993c0,1.099,0.895,1.993,1.993,1.993s1.993-0.895,1.993-1.993
							C301.03,315.32,300.136,314.426,299.037,314.426z"/>
					</g>
					<g>
						<path style="fill:#FFFFFF;" d="M301.53,274.171c0,1.377-1.116,2.493-2.493,2.493c-1.377,0-2.493-1.116-2.493-2.493
							c0-1.377,1.116-2.493,2.493-2.493C300.414,271.678,301.53,272.794,301.53,274.171z"/>
						<path style="fill:#111111;" d="M299.037,277.164c-1.65,0-2.993-1.343-2.993-2.993s1.343-2.993,2.993-2.993
							c1.65,0,2.993,1.343,2.993,2.993S300.688,277.164,299.037,277.164z M299.037,272.178c-1.099,0-1.993,0.895-1.993,1.993
							s0.895,1.993,1.993,1.993s1.993-0.895,1.993-1.993S300.136,272.178,299.037,272.178z"/>
					</g>
					<g>
						<g>
							<g>
								<path style="fill:#FFFFFF;" d="M332.21,212.494l3.068,19.704c0.212,1.363-0.041,2.759-0.719,3.961l-15.303,27.143
									c-1.519,2.695-5.23,3.115-7.314,0.828l-19.866-21.803l32.089-32.435C326.899,207.13,331.612,208.654,332.21,212.494z"/>
								<path style="fill:#111111;" d="M315.282,266.114c-1.412,0-2.739-0.583-3.709-1.647l-19.865-21.803
									c-0.18-0.197-0.174-0.5,0.014-0.689l32.089-32.435c1.399-1.414,3.44-1.912,5.333-1.299c1.891,0.611,3.255,2.211,3.561,4.175
									l3.068,19.704c0.229,1.469-0.048,2.99-0.777,4.284l-15.303,27.143c-0.804,1.427-2.198,2.35-3.824,2.534
									C315.672,266.103,315.477,266.114,315.282,266.114z M292.767,242.341l19.545,21.452c0.884,0.971,2.133,1.449,3.444,1.294
									c1.304-0.147,2.421-0.888,3.065-2.03l15.303-27.144c0.62-1.099,0.854-2.391,0.66-3.639l-3.068-19.704c0,0,0,0,0-0.001
									c-0.251-1.612-1.328-2.875-2.881-3.377c-1.552-0.503-3.165-0.109-4.314,1.051L292.767,242.341z"/>
							</g>
							<g>
								<path style="fill:#FFFFFF;" d="M317.996,256.981c0,1.377-1.116,2.493-2.493,2.493c-1.377,0-2.493-1.116-2.493-2.493
									c0-1.377,1.116-2.493,2.493-2.493C316.879,254.487,317.996,255.604,317.996,256.981z"/>
								<path style="fill:#111111;" d="M315.502,259.974c-1.65,0-2.993-1.343-2.993-2.993c0-1.65,1.343-2.993,2.993-2.993
									c1.651,0,2.994,1.343,2.994,2.993C318.496,258.631,317.153,259.974,315.502,259.974z M315.502,254.987
									c-1.099,0-1.993,0.895-1.993,1.993c0,1.099,0.895,1.993,1.993,1.993c1.1,0,1.994-0.895,1.994-1.993
									C317.496,255.882,316.602,254.987,315.502,254.987z"/>
							</g>
							<g>
								<path style="fill:#FFFFFF;" d="M253.964,209.804l38.112,32.523l-20.325,23.117c-1.925,2.19-5.355,2.13-7.204-0.125
									l-20.107-24.536c-1.926-2.35-2.499-5.529-1.515-8.403l7.382-21.574C250.832,209.275,252.734,208.754,253.964,209.804z"/>
								<path style="fill:#111111;" d="M268.204,267.549c-0.03,0-0.061,0-0.091-0.001c-1.537-0.026-2.978-0.724-3.951-1.913
									L244.055,241.1c-2.05-2.502-2.649-5.822-1.602-8.883l7.382-21.574c0.299-0.875,1.011-1.544,1.904-1.788
									c0.89-0.246,1.845-0.033,2.55,0.568l0,0l38.112,32.523c0.102,0.087,0.165,0.211,0.175,0.345
									c0.009,0.133-0.035,0.265-0.123,0.366l-20.325,23.117C271.133,266.905,269.707,267.549,268.204,267.549z M252.487,209.753
									c-0.16,0-0.322,0.021-0.483,0.066c-0.582,0.159-1.027,0.578-1.222,1.147l-7.382,21.574c-0.935,2.73-0.4,5.693,1.429,7.925
									l20.107,24.535c0.787,0.962,1.952,1.525,3.194,1.547c1.23,0.051,2.427-0.501,3.246-1.435l19.99-22.736l-37.726-32.193
									C253.309,209.901,252.905,209.753,252.487,209.753z"/>
							</g>
							<g>
								<path style="fill:#FFFFFF;" d="M270.317,256.981c0,1.377-1.116,2.493-2.493,2.493c-1.377,0-2.493-1.116-2.493-2.493
									c0-1.377,1.116-2.493,2.493-2.493C269.201,254.487,270.317,255.604,270.317,256.981z"/>
								<path style="fill:#111111;" d="M267.824,259.974c-1.65,0-2.993-1.343-2.993-2.993c0-1.65,1.343-2.993,2.993-2.993
									s2.993,1.343,2.993,2.993C270.817,258.631,269.475,259.974,267.824,259.974z M267.824,254.987
									c-1.099,0-1.993,0.895-1.993,1.993c0,1.099,0.895,1.993,1.993,1.993c1.099,0,1.993-0.895,1.993-1.993
									C269.817,255.882,268.923,254.987,267.824,254.987z"/>
							</g>
						</g>
					</g>
				</g>
			</g>
			<g>
				<g>
					<g>
						<g>
							<g>
								<g>
									<g>
										<path style="fill:#E06A4B;" d="M278.53,393.628c-0.438,0-0.837-0.289-0.962-0.728c-0.146-0.522,0.148-1.065,0.666-1.227
											c1.014-0.315,1.748-0.516,2.383-0.652c0.521-0.115,1.04,0.204,1.178,0.721c0.137,0.516-0.155,1.048-0.664,1.21
											c-0.691,0.22-1.508,0.431-2.354,0.646C278.695,393.618,278.612,393.628,278.53,393.628z"/>
										<g>
											<path style="fill:#FFA485;" d="M278.531,392.628c0.783-0.199,1.504-0.388,2.138-0.583c0.005-0.003,0.01-0.007,0.015-0.01
												C280.034,392.181,279.313,392.386,278.531,392.628z"/>
											<path style="fill:#FFA485;" d="M359.707,355.751l-13.218,2.625c-1.573-1.046-9.718-3.06-11.354-3.959
												c0,0-0.079-0.008-0.228-0.023l-0.843-1.375c0,0-5.138-8.037-1.482-17.538c3.656-9.501-15.168-9.19-16.73,5.049
												c-1.564,14.239-4.076,14.878-4.076,14.878s-1.128,1.448-5.817,1.926c-1.123,0.015-2.265,0.029-3.382,0.066
												c-3.958,0.254-5.043,0.304-9.679,0.512c-9.74,1.142-26.032,1.051-23.795,13.706c1.151,4.326,4.707,4.964,8.366,4.427
												c-4.986,1.753-9.451,4.809-6.882,10.867c1.531,5.803,6.858,5.452,12.044,4.07c-0.702,0.307-1.359,0.656-1.946,1.052
												c0.046-0.01,0.098-0.026,0.143-0.036c-0.049,0.016-0.109,0.03-0.159,0.046c-1.982,1.345-3.126,3.27-2.219,6.222
												c1.303,7.092,8.071,7.298,13.704,5.646c-4.838,3.15,1.46,10.542,9.013,10.337c10.606,0.251,21.12,0.459,31.73,0.92
												c7.488,0.326,14.573-0.116,21.136-3.843l8.078,0.239L359.707,355.751z"/>
										</g>
										<path style="opacity:0.36;fill:#E06A4B;" d="M313.026,353.754c-0.722,1.515-1.25,1.654-1.25,1.654
											s-1.229,1.593-6.512,1.991l0.013,0.03l22.738,0.241C328.015,357.67,320.438,355.569,313.026,353.754z"/>
									</g>
								</g>
							</g>
						</g>
						<g>
							<g>
								<path style="fill:#FFFFFF;" d="M352.743,415.329l14.409-0.151c1.363-0.014,2.455-1.131,2.441-2.493l-0.599-57.086
									c-0.014-1.363-1.13-2.456-2.493-2.441l-14.41,0.151c-1.363,0.014-2.455,1.13-2.441,2.493l0.598,57.086
									C350.265,414.251,351.381,415.344,352.743,415.329z"/>
								<path style="fill:#111111;" d="M352.716,415.829c-0.78,0-1.516-0.3-2.074-0.847c-0.566-0.555-0.883-1.297-0.892-2.089
									l-0.599-57.087c-0.008-0.792,0.293-1.54,0.848-2.106c0.555-0.566,1.296-0.883,2.089-0.891l14.41-0.151
									c0.82-0.003,1.54,0.292,2.107,0.847c0.566,0.555,0.883,1.297,0.891,2.09l0.599,57.086c0.009,0.792-0.292,1.54-0.847,2.106
									c-0.555,0.566-1.297,0.883-2.089,0.892l-14.41,0.15h0.001C352.737,415.829,352.727,415.829,352.716,415.829z
									 M366.53,353.658c-0.008,0-0.015,0-0.021,0l-14.411,0.151c-1.084,0.011-1.957,0.902-1.946,1.987l0.599,57.086
									c0.006,0.525,0.216,1.018,0.591,1.385c0.37,0.362,0.858,0.561,1.375,0.561c0.009,0,0.022-0.001,0.022,0l14.409-0.15
									c0.525-0.006,1.018-0.216,1.385-0.591c0.368-0.376,0.567-0.872,0.562-1.396l-0.599-57.087
									c-0.005-0.525-0.215-1.018-0.59-1.385C367.535,353.856,367.047,353.658,366.53,353.658z"/>
							</g>
						</g>
						<path style="fill:#111111;" d="M379.339,421.396c-1.399,0-2.721-0.084-3.961-0.255c-3.582-0.491-6.284-3.618-6.284-7.273
							v-1.182c0-0.276,0.224-0.5,0.5-0.5c0.276,0,0.5,0.224,0.5,0.5v1.182c0,3.158,2.33,5.859,5.421,6.283
							c4.176,0.573,9.336,0.145,15.335-1.276c0.27-0.067,0.537,0.103,0.602,0.371c0.063,0.269-0.103,0.538-0.371,0.602
							C386.726,420.878,382.794,421.396,379.339,421.396z"/>
						<path style="fill:#111111;" d="M368.121,354.254c-0.276,0-0.5-0.224-0.5-0.5v-3.978c0-1.38,0.555-2.659,1.563-3.603
							c1.009-0.946,2.327-1.422,3.711-1.324c13.096,0.866,45.253,1.332,60.902-13.107c0.203-0.188,0.52-0.175,0.706,0.028
							c0.188,0.203,0.175,0.52-0.028,0.706c-15.935,14.703-48.42,14.248-61.646,13.371c-1.107-0.075-2.155,0.302-2.962,1.057
							c-0.803,0.751-1.245,1.772-1.245,2.872v3.978C368.621,354.03,368.397,354.254,368.121,354.254z"/>
						<path style="fill:#111111;" d="M401.973,343.499c-0.263,0-0.483-0.205-0.499-0.47c-0.823-13.774-12.305-24.148-21.793-30.426
							c-0.229-0.152-0.293-0.463-0.141-0.693c0.15-0.229,0.463-0.295,0.693-0.141c9.677,6.402,21.391,17.013,22.238,31.199
							c0.017,0.276-0.193,0.513-0.469,0.529C401.992,343.499,401.982,343.499,401.973,343.499z"/>
						<path style="fill:#E06A4B;" d="M276.523,377.148c-0.483,0-0.908-0.35-0.986-0.843c-0.087-0.545,0.284-1.058,0.83-1.145
							l15.561-2.48c0.546-0.089,1.058,0.285,1.145,0.83c0.087,0.545-0.284,1.058-0.83,1.145l-15.562,2.48
							C276.629,377.145,276.575,377.148,276.523,377.148z"/>
						<path style="fill:#E06A4B;" d="M282.63,391.981c-0.449,0-0.857-0.305-0.97-0.761c-0.133-0.536,0.195-1.078,0.731-1.21
							l12.743-3.145c0.537-0.136,1.078,0.195,1.21,0.731c0.133,0.536-0.195,1.078-0.731,1.21l-12.743,3.145
							C282.79,391.973,282.709,391.981,282.63,391.981z"/>
						<path style="fill:#E06A4B;" d="M291.477,405.455c-0.435,0-0.834-0.285-0.96-0.725c-0.152-0.53,0.154-1.084,0.685-1.236
							l12.23-3.51c0.527-0.15,1.084,0.153,1.236,0.685c0.152,0.53-0.154,1.084-0.685,1.236l-12.23,3.51
							C291.661,405.442,291.568,405.455,291.477,405.455z"/>
					</g>
				</g>
			</g>
		</g>
		<g>
			<g>
				<path style="fill:#5C69AB;" d="M182.371,380.935L182.371,380.935c-29.68,0-53.964-24.284-53.964-53.964v-40.709
					c0-29.68,24.284-53.964,53.964-53.964h0c29.68,0,53.964,24.284,53.964,53.964v40.709
					C236.335,356.651,212.051,380.935,182.371,380.935z"/>
				<path style="fill:#5C69AB;" d="M182.371,381.435c-30.031,0-54.463-24.432-54.463-54.463v-40.709
					c0-30.031,24.432-54.464,54.463-54.464c30.031,0,54.464,24.433,54.464,54.464v40.709
					C236.835,357.003,212.402,381.435,182.371,381.435z M182.371,232.799c-29.48,0-53.463,23.983-53.463,53.464v40.709
					c0,29.479,23.983,53.463,53.463,53.463s53.464-23.983,53.464-53.463v-40.709C235.835,256.782,211.851,232.799,182.371,232.799z"
					/>
			</g>
			<path style="fill:#111111;" d="M182.371,381.435c-30.031,0-54.463-24.432-54.463-54.463v-40.709
				c0-30.031,24.432-54.464,54.463-54.464c30.031,0,54.464,24.433,54.464,54.464v40.709
				C236.835,357.003,212.402,381.435,182.371,381.435z M182.371,232.799c-29.48,0-53.463,23.983-53.463,53.464v40.709
				c0,29.479,23.983,53.463,53.463,53.463s53.464-23.983,53.464-53.463v-40.709C235.835,256.782,211.851,232.799,182.371,232.799z"
				/>
			<g>
				<path style="fill:#FFFFFF;" d="M177.436,332.109h-22.421c-17.273,0-31.405-14.132-31.405-31.405v-22.421
					c0-29.604,24.222-53.826,53.826-53.826h21.843c17.591,0,31.983,14.392,31.983,31.983v21.843
					C231.262,307.888,207.04,332.109,177.436,332.109z"/>
				<path style="fill:#111111;" d="M177.436,332.609h-22.421c-17.593,0-31.905-14.313-31.905-31.905v-22.421
					c0-29.956,24.371-54.326,54.326-54.326h21.843c17.911,0,32.483,14.572,32.483,32.483v21.843
					C231.762,308.238,207.392,332.609,177.436,332.609z M177.436,224.957c-29.404,0-53.326,23.922-53.326,53.326v22.421
					c0,17.041,13.864,30.905,30.905,30.905h22.421c29.404,0,53.326-23.922,53.326-53.326V256.44
					c0-17.36-14.123-31.483-31.483-31.483H177.436z"/>
			</g>
			<g>
				<g>
					<g>
						<path style="fill:#FFA485;" d="M189.291,188.07c-2.996-8.156-4.434-8.978-6.92-17.304c-4.313-14.446-2.273-31.625,0.58-37.164
							c4.048-7.858,11.54-12.709,17.692-10.696c6.053,1.98,6.44,37.04,10.363,44.592c3.555,6.845,5.427,14.873,8.494,21.95
							c1.161,2.681,2.335,5.406,2.705,8.303c0.151,1.18,2.122,29.447,4.126,58.434c2.365,34.207-24.712,63.273-59.001,63.337
							l-24.634,0.046c-4.962,0.009-8.83-4.625-7.578-9.426c0.1-0.383,0.223-0.734,0.375-1.042
							c-10.307-10.205-19.874-21.158-28.601-32.744c43.633-7.724,74.663-7.491,77.055-94.831"/>
					</g>
					<path style="opacity:0.43;fill:#E06A4B;" d="M191.932,275.325l-7.847-76.784l-1.713,70.556
						c-24.818-0.699-36.538,2.581-69.693-3.915l-0.551,14.479c4.005,4.813,8.165,9.508,12.483,14.065l51.162-0.957
						C185.428,292.588,192.875,284.549,191.932,275.325z"/>
					<g>
						<path style="fill:#E06A4B;" d="M136.016,310.419c2.902,0,5.805,0,8.707,0c0.785,0,1.536-0.69,1.5-1.5
							c-0.036-0.813-0.659-1.5-1.5-1.5c-2.902,0-5.805,0-8.707,0c-0.785,0-1.536,0.69-1.5,1.5
							C134.552,309.732,135.175,310.419,136.016,310.419L136.016,310.419z"/>
						<path style="fill:#E06A4B;" d="M215.751,187.889c-0.005,0.092-0.016,0.186-0.019,0.278c-0.007,0.191,0.058-0.299,0.002-0.014
							c-0.036,0.182-0.073,0.361-0.124,0.539c-0.012,0.044-0.17,0.528-0.177,0.525c0.074-0.17,0.089-0.204,0.044-0.102
							c-0.022,0.051-0.046,0.102-0.07,0.152c-0.032,0.067-0.065,0.134-0.1,0.2c-0.086,0.166-0.179,0.327-0.279,0.485
							c-0.049,0.079-0.227,0.448-0.317,0.464c0.11-0.139,0.131-0.166,0.063-0.081c-0.035,0.044-0.07,0.088-0.107,0.131
							c-0.048,0.058-0.097,0.114-0.147,0.171c-0.136,0.154-0.279,0.303-0.426,0.446c-0.142,0.138-0.289,0.271-0.439,0.4
							c-0.076,0.065-0.153,0.128-0.229,0.191c-0.218,0.181,0.12-0.082-0.026,0.022c-0.326,0.232-0.65,0.461-0.99,0.672
							c-0.698,0.433-1.427,0.812-2.161,1.178c-0.704,0.351-0.957,1.403-0.538,2.052c0.464,0.72,1.3,0.913,2.052,0.538
							c1.655-0.825,3.309-1.755,4.612-3.091c1.364-1.4,2.277-3.188,2.376-5.156c0.04-0.785-0.718-1.535-1.5-1.5
							C216.404,186.427,215.793,187.048,215.751,187.889L215.751,187.889z"/>
					</g>
				</g>
				<g>
					<g>
						<path style="fill:#111111;" d="M177.939,290.84H80.241c-4.105,0-7.432-3.328-7.432-7.432V86.577
							c0-4.105,3.328-7.432,7.432-7.432h97.698c4.105,0,7.432,3.327,7.432,7.432v196.831
							C185.371,287.513,182.044,290.84,177.939,290.84z"/>
					</g>
					<rect x="76.629" y="98.32" style="fill:#FFFFFF;" width="104.921" height="164.656"/>
					<g>
						<g>
							<g>
								
									<ellipse transform="matrix(0.7071 -0.7071 0.7071 0.7071 -61.3944 132.3723)" style="fill:#5C69AB;" cx="129.09" cy="140.296" rx="24.731" ry="24.731"/>
								<path style="fill:#5C69AB;" d="M129.09,165.527c-13.913,0-25.231-11.318-25.231-25.231s11.319-25.231,25.231-25.231
									s25.231,11.319,25.231,25.231S143.003,165.527,129.09,165.527z M129.09,116.064c-13.361,0-24.231,10.87-24.231,24.231
									c0,13.361,10.87,24.231,24.231,24.231c13.361,0,24.231-10.87,24.231-24.231C153.322,126.935,142.452,116.064,129.09,116.064
									z"/>
							</g>
							<g>
								<path style="fill:#FFFFFF;" d="M129.09,139.939c-4.424,0-8.022-3.598-8.022-8.023c0-4.423,3.598-8.021,8.022-8.021
									c4.424,0,8.022,3.598,8.022,8.021C137.113,136.34,133.514,139.939,129.09,139.939z M129.09,125.927
									c-3.303,0-5.99,2.686-5.99,5.989c0,3.303,2.687,5.99,5.99,5.99c3.303,0,5.99-2.687,5.99-5.99
									C135.08,128.613,132.393,125.927,129.09,125.927z"/>
								<path style="fill:#FFFFFF;" d="M138.579,153.021h-18.978c-2.025,0-3.672-1.648-3.672-3.672
									c0-5.994,4.876-10.869,10.868-10.869h5.824c5.309,0,9.63,4.321,9.63,9.631v1.238
									C142.251,151.374,140.604,153.021,138.579,153.021z M126.798,140.512c-4.872,0-8.836,3.965-8.836,8.837
									c0,0.904,0.736,1.639,1.639,1.639h18.978c0.903,0,1.639-0.735,1.639-1.639v-1.238c0-4.19-3.408-7.599-7.598-7.599H126.798z"
									/>
							</g>
						</g>
						<g>
							<path style="fill:#111111;" d="M110.644,183.651h-25.61c-0.897,0-1.625-0.727-1.625-1.625v-7.906
								c0-0.897,0.728-1.625,1.625-1.625h25.61c0.897,0,1.625,0.728,1.625,1.625v7.906
								C112.269,182.924,111.542,183.651,110.644,183.651z"/>
							<path style="fill:#FFFFFF;" d="M107.46,177.054H87.909c-0.276,0-0.5-0.224-0.5-0.5s0.224-0.5,0.5-0.5h19.551
								c0.276,0,0.5,0.224,0.5,0.5S107.736,177.054,107.46,177.054z"/>
							<path style="fill:#FFFFFF;" d="M104.754,180.468H90.706c-0.276,0-0.5-0.224-0.5-0.5c0-0.276,0.224-0.5,0.5-0.5h14.048
								c0.276,0,0.5,0.224,0.5,0.5C105.254,180.244,105.031,180.468,104.754,180.468z"/>
						</g>
						<g>
							<path style="fill:#111111;" d="M141.854,183.651h-25.241c-0.897,0-1.625-0.727-1.625-1.625v-7.906
								c0-0.897,0.728-1.625,1.625-1.625h25.241c0.898,0,1.625,0.728,1.625,1.625v7.906
								C143.479,182.924,142.751,183.651,141.854,183.651z"/>
							<path style="fill:#FFFFFF;" d="M138.669,177.054h-19.551c-0.276,0-0.5-0.224-0.5-0.5s0.224-0.5,0.5-0.5h19.551
								c0.276,0,0.5,0.224,0.5,0.5S138.946,177.054,138.669,177.054z"/>
							<path style="fill:#FFFFFF;" d="M136.781,180.468h-14.048c-0.276,0-0.5-0.224-0.5-0.5c0-0.276,0.224-0.5,0.5-0.5h14.048
								c0.276,0,0.5,0.224,0.5,0.5C137.281,180.244,137.058,180.468,136.781,180.468z"/>
						</g>
						<g>
							<path style="fill:#111111;" d="M173.146,183.651h-25.688c-0.897,0-1.625-0.727-1.625-1.625v-7.906
								c0-0.897,0.727-1.625,1.625-1.625h25.688c0.898,0,1.625,0.728,1.625,1.625v7.906
								C174.771,182.924,174.044,183.651,173.146,183.651z"/>
							<path style="fill:#FFFFFF;" d="M170.078,177.054h-19.551c-0.276,0-0.5-0.224-0.5-0.5s0.224-0.5,0.5-0.5h19.551
								c0.276,0,0.5,0.224,0.5,0.5S170.354,177.054,170.078,177.054z"/>
							<path style="fill:#FFFFFF;" d="M168.189,180.468h-14.048c-0.276,0-0.5-0.224-0.5-0.5c0-0.276,0.224-0.5,0.5-0.5h14.048
								c0.276,0,0.5,0.224,0.5,0.5C168.689,180.244,168.465,180.468,168.189,180.468z"/>
						</g>
						<g>
							<rect x="83.409" y="194.428" style="fill:#5C69AB;" width="90.262" height="18.437"/>
							<path style="fill:#F6EEE3;" d="M94.775,208.047H89.89c-1.046,0-1.898-0.852-1.898-1.898v-4.886
								c0-1.046,0.852-1.898,1.898-1.898h4.886c1.046,0,1.898,0.852,1.898,1.898v4.886
								C96.673,207.195,95.822,208.047,94.775,208.047z M89.89,200.365c-0.495,0-0.898,0.403-0.898,0.898v4.886
								c0,0.495,0.403,0.898,0.898,0.898h4.886c0.495,0,0.898-0.403,0.898-0.898v-4.886c0-0.495-0.403-0.898-0.898-0.898H89.89z"/>
							<path style="fill:#F6EEE3;" d="M134.229,201.428h-31.556c-0.276,0-0.5-0.224-0.5-0.5c0-0.276,0.224-0.5,0.5-0.5h31.556
								c0.276,0,0.5,0.224,0.5,0.5C134.729,201.205,134.506,201.428,134.229,201.428z"/>
							<path style="fill:#F6EEE3;" d="M149.475,204.856h-46.801c-0.276,0-0.5-0.224-0.5-0.5c0-0.276,0.224-0.5,0.5-0.5h46.801
								c0.276,0,0.5,0.224,0.5,0.5C149.975,204.632,149.751,204.856,149.475,204.856z"/>
						</g>
						<g>
							<rect x="83.409" y="231.302" style="fill:#5C69AB;" width="90.262" height="18.437"/>
							<path style="fill:#F6EEE3;" d="M94.775,244.921H89.89c-1.046,0-1.898-0.852-1.898-1.898v-4.886
								c0-1.046,0.852-1.898,1.898-1.898h4.886c1.046,0,1.898,0.852,1.898,1.898v4.886
								C96.673,244.069,95.822,244.921,94.775,244.921z M89.89,237.239c-0.495,0-0.898,0.403-0.898,0.898v4.886
								c0,0.496,0.403,0.898,0.898,0.898h4.886c0.495,0,0.898-0.403,0.898-0.898v-4.886c0-0.495-0.403-0.898-0.898-0.898H89.89z"/>
							<path style="fill:#F6EEE3;" d="M134.229,238.302h-31.556c-0.276,0-0.5-0.224-0.5-0.5c0-0.276,0.224-0.5,0.5-0.5h31.556
								c0.276,0,0.5,0.224,0.5,0.5C134.729,238.079,134.506,238.302,134.229,238.302z"/>
							<path style="fill:#F6EEE3;" d="M149.475,241.73h-46.801c-0.276,0-0.5-0.224-0.5-0.5c0-0.276,0.224-0.5,0.5-0.5h46.801
								c0.276,0,0.5,0.224,0.5,0.5C149.975,241.506,149.751,241.73,149.475,241.73z"/>
						</g>
						<g>
							<rect x="83.409" y="212.865" style="fill:#ED9D4A;" width="90.262" height="18.437"/>
							<path style="fill:#F6EEE3;" d="M94.775,226.484H89.89c-1.046,0-1.898-0.852-1.898-1.898V219.7
								c0-1.046,0.852-1.898,1.898-1.898h4.886c1.046,0,1.898,0.852,1.898,1.898v4.886
								C96.673,225.632,95.822,226.484,94.775,226.484z M89.89,218.802c-0.495,0-0.898,0.403-0.898,0.898v4.886
								c0,0.495,0.403,0.898,0.898,0.898h4.886c0.495,0,0.898-0.403,0.898-0.898V219.7c0-0.495-0.403-0.898-0.898-0.898H89.89z"/>
							<path style="fill:#F6EEE3;" d="M134.229,219.865h-31.556c-0.276,0-0.5-0.224-0.5-0.5c0-0.276,0.224-0.5,0.5-0.5h31.556
								c0.276,0,0.5,0.224,0.5,0.5C134.729,219.642,134.506,219.865,134.229,219.865z"/>
							<path style="fill:#F6EEE3;" d="M149.475,223.293h-46.801c-0.276,0-0.5-0.224-0.5-0.5c0-0.276,0.224-0.5,0.5-0.5h46.801
								c0.276,0,0.5,0.224,0.5,0.5C149.975,223.069,149.751,223.293,149.475,223.293z"/>
						</g>
					</g>
					<g>
						<g>
							<path style="opacity:0.89;fill:#FFFFFF;" d="M129.094,88.763c-0.002,0-0.004,0-0.006,0c-0.559,0-1.085-0.218-1.482-0.614
								c-0.398-0.399-0.616-0.926-0.615-1.486c0-0.559,0.218-1.086,0.615-1.484c0.396-0.396,0.923-0.615,1.482-0.615
								c0.561,0.043,1.089,0.217,1.487,0.614c0.397,0.398,0.615,0.926,0.615,1.486c0,0.561-0.219,1.088-0.615,1.484
								c-0.228,0.228-0.496,0.396-0.795,0.5l0,0C129.559,88.725,129.329,88.763,129.094,88.763z M129.615,88.176h0.01H129.615z
								 M129.089,85.564c-0.293,0-0.568,0.114-0.776,0.322c-0.208,0.208-0.323,0.484-0.322,0.777c0,0.294,0.114,0.57,0.322,0.779
								c0.207,0.207,0.498,0.326,0.78,0.321c0.124,0,0.244-0.02,0.358-0.06l0,0c0.156-0.055,0.297-0.143,0.417-0.263
								c0.207-0.207,0.321-0.483,0.322-0.777c0.001-0.293-0.114-0.569-0.322-0.778c-0.208-0.207-0.483-0.321-0.777-0.321
								C129.09,85.564,129.089,85.564,129.089,85.564z"/>
							<path style="opacity:0.89;fill:#FFFFFF;" d="M137.956,94.16l-17.731-0.002c-0.945,0-1.714-0.769-1.714-1.714
								c0-0.459,0.179-0.891,0.504-1.214c0.323-0.323,0.786-0.482,1.212-0.501l17.727,0.001c0.001,0,0.002,0,0.002,0
								c0.457,0,0.887,0.178,1.21,0.503c0.323,0.321,0.502,0.752,0.502,1.21c-0.001,0.731-0.466,1.382-1.155,1.622
								c0,0-0.001,0-0.001,0C138.333,94.128,138.146,94.16,137.956,94.16z M138.35,93.594h0.01H138.35z M120.224,91.73
								c-0.19,0-0.368,0.074-0.501,0.208c-0.137,0.136-0.211,0.315-0.211,0.506c0,0.394,0.32,0.714,0.714,0.714l17.729,0.001
								c0.08,0,0.158-0.013,0.233-0.039c0.288-0.1,0.482-0.372,0.482-0.677c0-0.19-0.075-0.369-0.209-0.503
								c-0.135-0.136-0.313-0.21-0.503-0.21c-0.001,0-0.001,0-0.001,0l-17.729-0.001C120.225,91.73,120.225,91.73,120.224,91.73z"/>
						</g>
					</g>
					<path style="fill:#FFFFFF;" d="M138.564,280.911h-18.949c-2.225,0-4.035-1.811-4.035-4.036c0-2.225,1.81-4.035,4.035-4.035
						h18.949c2.225,0,4.036,1.811,4.036,4.035C142.6,279.101,140.79,280.911,138.564,280.911z M119.615,273.84
						c-1.674,0-3.035,1.361-3.035,3.035s1.361,3.036,3.035,3.036h18.949c1.674,0,3.036-1.362,3.036-3.036s-1.362-3.035-3.036-3.035
						H119.615z"/>
					<g>
						
							<ellipse transform="matrix(0.0989 -0.9951 0.9951 0.0989 -19.8384 151.2862)" style="fill:#EB8D2E;" cx="73.615" cy="86.597" rx="18.92" ry="18.92"/>
						<path style="fill:#111111;" d="M73.232,91.714c-0.398,0-0.797-0.152-1.101-0.456l-6.752-6.751
							c-0.195-0.195-0.195-0.512,0-0.707c0.195-0.195,0.512-0.195,0.707,0l6.752,6.752c0.217,0.217,0.57,0.218,0.789,0
							l17.686-17.687c0.195-0.195,0.512-0.195,0.707,0c0.195,0.195,0.195,0.512,0,0.707L74.334,91.259
							C74.03,91.563,73.631,91.714,73.232,91.714z"/>
					</g>
				</g>
				<g>
					<g>
						<path style="fill:#FFA485;" d="M81.395,198.99l-11.113-2.925c-5.986-1.576-9.562-7.706-7.986-13.692v0
							c1.576-5.986,7.706-9.562,13.692-7.986l11.113,2.925c5.986,1.576,9.562,7.706,7.986,13.692l0,0
							C93.511,196.99,87.381,200.566,81.395,198.99z"/>
						<path style="fill:#FFA485;" d="M68.162,142.477l-2.24-1.122c-6.228-3.12-13.806-0.6-16.926,5.628
							c-3.12,6.228-0.6,13.806,5.628,16.926l18.758,9.397v-8.278v-19.935L68.162,142.477z"/>
						<path style="opacity:0.43;fill:#E06A4B;" d="M64.812,146.627L64.812,146.627c-3.12,6.228-0.6,13.806,5.628,16.926l2.942,1.474
							v-19.935l-5.22-2.615C66.803,143.575,65.645,144.964,64.812,146.627z"/>
						<path style="fill:#FFA485;" d="M75.241,220.619l-11.113-2.925c-5.986-1.576-9.562-7.706-7.986-13.692l0,0
							c1.576-5.986,7.706-9.562,13.692-7.986l11.114,2.925c5.986,1.576,9.562,7.706,7.986,13.692l0,0
							C87.357,218.619,81.227,222.195,75.241,220.619z"/>
						<path style="fill:#FFA485;" d="M73.846,238.107l-9.258-2.437c-4.987-1.313-8.029-6.176-6.796-10.863l0,0
							c1.234-4.687,6.276-7.422,11.263-6.109l9.258,2.437c4.987,1.313,8.03,6.176,6.796,10.863l0,0
							C83.876,236.685,78.833,239.42,73.846,238.107z"/>
						<path style="fill:#E06A4B;" d="M69.154,197.077c1.092,0.665,2.309,0.99,3.545,1.267c1.348,0.302,2.697,0.599,4.046,0.899
							c2.747,0.61,5.494,1.221,8.241,1.831c1.881,0.418,2.684-2.474,0.798-2.893c-2.647-0.588-5.294-1.176-7.941-1.764
							c-1.299-0.289-2.597-0.577-3.896-0.866c-1.129-0.251-2.278-0.455-3.277-1.064C69.015,193.48,67.506,196.074,69.154,197.077
							L69.154,197.077z"/>
						<path style="fill:#E06A4B;" d="M67.33,220.132c4.873,0.805,9.575,2.422,14.514,2.852c0.808,0.07,1.5-0.74,1.5-1.5
							c0-0.87-0.69-1.429-1.5-1.5c-4.659-0.406-9.116-1.986-13.716-2.745c-0.798-0.132-1.615,0.209-1.845,1.048
							C66.085,219.004,66.526,219.999,67.33,220.132L67.33,220.132z"/>
					</g>
				</g>
			</g>
		</g>
	</g>
</g>
</svg>
